<svg id="ac14f986-3cef-42c8-9134-6ea7ea473187" data-name="Layer 1" xmlns="http://www.w3.org/2000/svg" xmlns:xlink="http://www.w3.org/1999/xlink" viewBox="0 0 1437.96 993.14"><defs><style>.e59ba6c4-685e-427e-9939-f775d380bc19,.f5ac8e73-1eef-4ef2-92c7-e812d1fa7773{fill:none;}.ae36d612-41ec-49be-83ac-9f0dd54866e3{fill:#efefea;}.a7f09119-b02b-43b2-ba61-780facaaba70{clip-path:url(#bb3d0803-954e-4468-b5bb-e8b3b679768f);}.bbaba908-c3f4-4fdb-865c-ba519c6bde41{fill:#e95319;}.ac0f7b58-3c24-4dc0-90d0-61aa4adb75c6{fill:#65626a;}.f5ac8e73-1eef-4ef2-92c7-e812d1fa7773{stroke:#49484c;stroke-miterlimit:10;stroke-width:0.33px;}.e77805e3-a4b2-4d51-a9f3-0a1e9a5b643a{fill:#45babf;}.ec887cf4-051b-4658-b069-00c1885488d1{fill:#e94255;}.a262dee4-987d-486c-b2e6-453dec0ba7d9{fill:#fac934;}</style><clipPath id="bb3d0803-954e-4468-b5bb-e8b3b679768f"><rect class="e59ba6c4-685e-427e-9939-f775d380bc19" x="-545.04" width="2494.49" height="7086.61"/></clipPath></defs><title>holding-1</title><rect class="ae36d612-41ec-49be-83ac-9f0dd54866e3" x="64.01" y="134.38" width="1276.44" height="808.7"/><g class="a7f09119-b02b-43b2-ba61-780facaaba70"><path class="bbaba908-c3f4-4fdb-865c-ba519c6bde41" d="M118.93,100a9.27,9.27,0,0,1-7.47-3.76l-8.37-11.35L94.63,96.16a9.27,9.27,0,0,1-15.15-.48l-14-21.19A9.27,9.27,0,0,1,81,64.3l6.71,10.19,8-10.67a9.26,9.26,0,0,1,7.41-3.69h0a9.25,9.25,0,0,1,7.42,3.76l15.76,21.36A9.26,9.26,0,0,1,118.93,100"/><path class="ac0f7b58-3c24-4dc0-90d0-61aa4adb75c6" d="M189.89,87.87a2.4,2.4,0,0,1,4.09-1.7,2.31,2.31,0,0,1,.69,1.68,2.39,2.39,0,0,1-.67,1.73,2.42,2.42,0,0,1-1.71.7,2.33,2.33,0,0,1-2.4-2.4Zm5.54-5.23h-.82V86.1a2.65,2.65,0,0,0-2.45-1.38,3.17,3.17,0,0,0,0,6.33,2.63,2.63,0,0,0,2.47-1.41v1.24h.79Zm-13.1,8.24h.83V87.49a1.82,1.82,0,0,1,2-2c1.34,0,1.92.86,1.92,2.15v3.24h.82V87.47c0-1.46-.66-2.73-2.52-2.75A2.26,2.26,0,0,0,183.1,86c0-.4,0-.74,0-1.07h-.78Zm-7.17-3a2.35,2.35,0,0,1,2.38-2.4,2.32,2.32,0,0,1,2.2,1.44,2.15,2.15,0,0,1,.19,1,2.2,2.2,0,0,1-.21.95,2.23,2.23,0,0,1-2.16,1.46,2.33,2.33,0,0,1-2.4-2.38Zm5.57-3h-.83v1.26a2.63,2.63,0,0,0-2.45-1.43,3.17,3.17,0,0,0,0,6.33,2.64,2.64,0,0,0,2.45-1.41v1.24h.83Zm-8.44,6h.83V82.64h-.83Zm-3,0h.82V85.54h1.31v-.65h-1.31V82.64h-.82v2.25h-1.18v.65h1.18Zm-7.25-3a2.36,2.36,0,1,1,2.36,2.4,2.33,2.33,0,0,1-2.36-2.4Zm-.81,0a3.18,3.18,0,1,0,3.17-3.16,3.09,3.09,0,0,0-3.17,3.16Zm-1.68,1a2.24,2.24,0,0,1-2.17,1.43,2.33,2.33,0,0,1-2.36-2.4,2.45,2.45,0,0,1,.68-1.72,2.26,2.26,0,0,1,1.69-.68A2.31,2.31,0,0,1,159.54,87h.84a3.15,3.15,0,1,0,0,1.89Zm-11.33-.26A2.44,2.44,0,0,0,150.78,91a2.4,2.4,0,0,0,2.55-2.42c0-1.52-1.23-2-2-2.25-1.24-.43-2.06-.67-2-1.67a1.49,1.49,0,0,1,3-.07h.91a2.22,2.22,0,0,0-2.34-2.13,2.28,2.28,0,0,0-2.45,2.27c0,1.56,1.44,2,2.11,2.19.95.31,1.95.57,1.95,1.73a1.62,1.62,0,0,1-1.65,1.57,1.65,1.65,0,0,1-1.65-1.66Z"/><path class="ac0f7b58-3c24-4dc0-90d0-61aa4adb75c6" d="M242.27,77.51h1.46V74.14c0-.86.36-1.55,1.4-1.56s1.32.7,1.32,1.61v3.32h1.46V73.82a2.3,2.3,0,0,0-2.37-2.62,2,2,0,0,0-1.91,1c0-.29,0-.55,0-.82h-1.38Zm-6.21-3.06a1.81,1.81,0,1,1,1.81,1.87,1.81,1.81,0,0,1-1.81-1.87Zm-1.46,0a3.28,3.28,0,1,0,3.27-3.23,3.18,3.18,0,0,0-3.27,3.23ZM232,77.51h1.46V71.39H232Zm0-6.94h1.46v-1.3H232Zm-3.35,6.94h1.46v-5h1.05V71.39h-1.05V69.27h-1.46v2.12h-1v1.13h1Zm-3-2.23a1.72,1.72,0,0,1-1.64,1,1.78,1.78,0,0,1-1.81-1.88,2,2,0,0,1,.5-1.36,1.73,1.73,0,0,1,1.31-.53,1.7,1.7,0,0,1,1.64,1.11h1.5a3.23,3.23,0,1,0,0,1.61Zm-8.26-.71H215l1.17-3.34Zm-2.81,1.33h3.25l.61,1.61h1.81L217,69.27h-1.46l-3.35,8.24H214ZM203.7,74.45a1.81,1.81,0,1,1,1.82,1.87,1.82,1.82,0,0,1-1.82-1.87Zm-1.46,0a3.28,3.28,0,1,0,3.28-3.23,3.19,3.19,0,0,0-3.28,3.23Zm-2.76,3.06h1.46v-5H202V71.39h-1.05V69.27h-1.46v2.12h-1v1.13h1Zm-7.47,0h1.46V74.14c0-.86.36-1.55,1.4-1.56s1.32.7,1.32,1.61v3.32h1.46V73.82a2.3,2.3,0,0,0-2.37-2.62,2,2,0,0,0-1.91,1c0-.29,0-.55,0-.82H192Zm-3.15,0h1.66V69.27h-1.66ZM184.18,73A2,2,0,0,0,182,71.2a2,2,0,0,0-2.2,2c0,.87.68,1.33,1.51,1.59,1.12.39,1.58.53,1.58,1.06a.77.77,0,0,1-.84.71.86.86,0,0,1-.9-.79H179.7a2.18,2.18,0,0,0,2.34,2,2.11,2.11,0,0,0,2.32-2.06c0-1.32-1.07-1.61-2.05-1.87-.58-.17-1-.38-1-.77a.65.65,0,0,1,.73-.61c.57,0,.73.33.74.65Zm-10.1.78a1.64,1.64,0,0,1,1.72-1.38,1.68,1.68,0,0,1,1.74,1.38Zm4.9,1.12a3.34,3.34,0,0,0-.9-2.8,3.13,3.13,0,0,0-2.29-.94,3.25,3.25,0,0,0,0,6.5,3.06,3.06,0,0,0,1.75-.53,3.44,3.44,0,0,0,1.24-1.54h-1.5a1.58,1.58,0,0,1-1.47.82,1.68,1.68,0,0,1-1.78-1.51Zm-7.46-3.55h-1.45v3.38c0,.87-.36,1.56-1.41,1.56s-1.34-.7-1.34-1.6V71.39h-1.46v3.7a2.29,2.29,0,0,0,2.39,2.61,2,2,0,0,0,1.9-1v.81h1.37ZM163,77.51h1.46V69.27H163Zm-6.62-3a1.84,1.84,0,0,1,1.85-1.91,1.81,1.81,0,0,1,1.71,1.09,1.9,1.9,0,0,1,.16.85,2.16,2.16,0,0,1-.23.86,1.73,1.73,0,0,1-1.63,1,1.84,1.84,0,0,1-1.86-1.86Zm5.17-3.08h-1.46v.9A2.3,2.3,0,0,0,158,71.2a3.25,3.25,0,0,0,0,6.5,2.28,2.28,0,0,0,2.06-1.07v.88h1.46Zm-10.67,6.12h1.68l2.95-8.24h-1.71l-2.09,6.26-2.06-6.26h-1.71Z"/></g><line class="f5ac8e73-1eef-4ef2-92c7-e812d1fa7773" x1="137.98" y1="59.52" x2="137.98" y2="99.12"/><g class="a7f09119-b02b-43b2-ba61-780facaaba70"><path class="e77805e3-a4b2-4d51-a9f3-0a1e9a5b643a" d="M1342.76,507.38s-111.1,106.35-217.46-4.75l-624-651.86S394.92-260.34,506-366.69l6.64-6.36s111.1-106.36,217.46,4.75l624,651.86S1460.5,394.66,1349.4,501Z"/><path class="ec887cf4-051b-4658-b069-00c1885488d1" d="M1096.84,858.35S985.75,964.7,879.39,853.61L449.05,404.06S342.7,293,453.79,186.61l6.65-6.36S571.54,73.9,677.89,185l430.34,449.55s106.36,111.09-4.74,217.45Z"/><path class="a262dee4-987d-486c-b2e6-453dec0ba7d9" d="M84,346.63S-27.06,453,79.29,564.08l51,53.27s106.35,111.1,217.46,4.74l6.64-6.36s111.1-106.35,4.74-217.45l-51-53.27s-106.36-111.1-217.46-4.74Z"/></g></svg>